<?xml version="1.0" encoding="UTF-8"?>
<svg xmlns="http://www.w3.org/2000/svg" xmlns:xlink="http://www.w3.org/1999/xlink" viewBox="0 0 24 24" width="24px" height="24px">
<g id="surface49992289">
<path style=" stroke:none;fill-rule:nonzero;fill:rgb(100%,100%,100%);fill-opacity:1;" d="M 12 2 C 6.484375 2 2 6.484375 2 12 C 2 17.515625 6.484375 22 12 22 C 17.515625 22 22 17.515625 22 12 C 22 6.484375 17.515625 2 12 2 Z M 12 3.5 C 16.703125 3.5 20.5 7.296875 20.5 12 C 20.5 15.832031 17.976562 19.0625 14.5 20.125 L 14.5 17.566406 C 14.5 16.613281 13.949219 15.792969 13.15625 15.386719 C 14.722656 15.085938 16.015625 14.199219 16.621094 13.003906 C 17.230469 11.808594 17.082031 10.453125 16.21875 9.359375 C 16.441406 8.675781 16.6875 7.480469 16.101562 6.539062 C 14.964844 6.539062 14.230469 7.316406 13.882812 7.800781 C 13.285156 7.601562 12.644531 7.5 12 7.5 C 11.355469 7.5 10.714844 7.601562 10.117188 7.796875 C 9.765625 7.3125 9.03125 6.539062 7.902344 6.539062 C 7.226562 7.621094 7.640625 8.78125 7.867188 9.257812 C 6.945312 10.34375 6.75 11.722656 7.34375 12.945312 C 7.9375 14.171875 9.246094 15.082031 10.839844 15.390625 C 10.1875 15.726562 9.699219 16.335938 9.550781 17.078125 L 8.890625 17.078125 C 8.242188 17.078125 7.992188 16.816406 7.640625 16.371094 C 7.292969 15.925781 6.921875 15.625 6.476562 15.503906 C 6.234375 15.476562 6.070312 15.660156 6.28125 15.824219 C 6.992188 16.304688 7.039062 17.097656 7.324219 17.613281 C 7.585938 18.082031 8.113281 18.5 8.714844 18.5 L 9.5 18.5 L 9.5 20.125 C 6.023438 19.0625 3.5 15.832031 3.5 12 C 3.5 7.296875 7.296875 3.5 12 3.5 Z M 12 3.5 "/>
</g>
</svg>
