<?xml version="1.0" encoding="UTF-8"?>
<svg xmlns="http://www.w3.org/2000/svg" xmlns:xlink="http://www.w3.org/1999/xlink" viewBox="0 0 40 40" width="40px" height="40px">
<g id="surface48884696">
<path style=" stroke:none;fill-rule:nonzero;fill:rgb(9.019608%,56.470591%,52.156866%);fill-opacity:1;" d="M 26.398438 6.253906 C 26.140625 6.226562 25.878906 6.367188 25.753906 6.617188 C 25.601562 6.933594 25.722656 7.316406 26.019531 7.484375 C 29.851562 9.632812 32.445312 13.773438 32.445312 18.53125 C 32.445312 23.867188 29.179688 28.433594 24.558594 30.28125 L 24.558594 25.007812 C 25.359375 24.75 25.964844 23.996094 25.964844 23.089844 C 25.964844 22.34375 25.582031 21.695312 24.988281 21.34375 C 25.457031 16.796875 27.496094 17.996094 27.496094 16.546875 L 27.496094 15.707031 C 27.496094 13.53125 22.539062 6.453125 20.21875 6.285156 C 20.078125 6.273438 19.9375 6.273438 19.789062 6.285156 C 17.464844 6.457031 12.507812 13.53125 12.507812 15.707031 L 12.507812 16.554688 C 12.507812 18 14.558594 16.796875 15.019531 21.351562 C 14.421875 21.699219 14.042969 22.347656 14.042969 23.097656 C 14.042969 24 14.640625 24.753906 15.441406 25.011719 L 15.441406 30.285156 C 10.820312 28.445312 7.554688 23.878906 7.554688 18.539062 C 7.554688 13.785156 10.148438 9.644531 13.980469 7.488281 C 14.285156 7.316406 14.398438 6.9375 14.246094 6.625 C 14.082031 6.285156 13.675781 6.15625 13.347656 6.339844 C 9.117188 8.714844 6.25 13.285156 6.25 18.539062 C 6.25 25.097656 10.71875 30.597656 16.738281 32.082031 L 16.738281 26.132812 C 17.167969 26.273438 17.59375 26.398438 18.035156 26.488281 L 18.035156 33.566406 C 10.714844 32.59375 5.046875 26.238281 5.046875 18.539062 C 5.046875 16.660156 5.386719 14.863281 6 13.203125 C 6.125 12.871094 5.96875 12.503906 5.648438 12.367188 C 5.308594 12.21875 4.914062 12.390625 4.78125 12.746094 C 4.117188 14.546875 3.75 16.496094 3.75 18.539062 C 3.75 27.410156 10.667969 34.644531 19.339844 35 L 19.339844 26.65625 C 19.722656 26.679688 20.183594 26.683594 20.660156 26.65625 L 20.660156 34.992188 C 29.332031 34.644531 36.25 27.410156 36.25 18.539062 C 36.25 16.496094 35.882812 14.546875 35.21875 12.738281 C 35.085938 12.390625 34.691406 12.210938 34.351562 12.359375 C 34.03125 12.5 33.875 12.871094 34 13.195312 C 34.613281 14.855469 34.953125 16.65625 34.953125 18.53125 C 34.953125 26.230469 29.292969 32.585938 21.964844 33.558594 L 21.964844 26.484375 C 22.410156 26.398438 22.839844 26.277344 23.261719 26.128906 L 23.261719 32.078125 C 29.28125 30.597656 33.75 25.09375 33.75 18.53125 C 33.75 13.28125 30.882812 8.707031 26.652344 6.332031 C 26.574219 6.289062 26.484375 6.261719 26.398438 6.253906 Z M 16.058594 21.738281 C 16.796875 21.738281 17.390625 22.34375 17.390625 23.09375 C 17.390625 23.835938 16.800781 24.449219 16.058594 24.449219 C 15.3125 24.449219 14.71875 23.835938 14.71875 23.09375 C 14.71875 22.351562 15.3125 21.738281 16.058594 21.738281 Z M 23.941406 21.742188 C 24.675781 21.742188 25.28125 22.339844 25.28125 23.09375 C 25.28125 23.84375 24.683594 24.449219 23.941406 24.449219 C 23.210938 24.449219 22.609375 23.851562 22.609375 23.09375 C 22.609375 22.347656 23.203125 21.742188 23.941406 21.742188 Z M 23.941406 21.742188 "/>
</g>
</svg>
