<?xml version="1.0" encoding="UTF-8"?>
<svg xmlns="http://www.w3.org/2000/svg" xmlns:xlink="http://www.w3.org/1999/xlink" viewBox="0 0 40 40" width="40px" height="40px">
<g id="surface48883076">
<path style=" stroke:none;fill-rule:nonzero;fill:rgb(85.882354%,26.666668%,27.450982%);fill-opacity:1;" d="M 27.691406 1.25 C 27.640625 1.253906 27.601562 1.265625 27.574219 1.292969 L 22.933594 6.808594 L 21.984375 10.0625 C 21.339844 10.042969 20.675781 10.035156 19.996094 10.035156 C 15.167969 10.035156 11.25 10.546875 11.25 11.179688 C 11.25 12.691406 28.738281 12.691406 28.738281 11.179688 C 28.738281 10.710938 26.644531 10.3125 23.625 10.125 L 24.375 7.445312 L 28.71875 2.222656 L 28.726562 2.214844 C 28.824219 2.113281 28.632812 1.808594 28.324219 1.542969 C 28.089844 1.34375 27.847656 1.242188 27.691406 1.25 Z M 21.628906 11.34375 L 21.609375 11.394531 C 21.605469 11.402344 21.605469 11.410156 21.605469 11.417969 C 21.605469 11.511719 21.984375 11.589844 22.445312 11.589844 C 22.90625 11.589844 23.285156 11.511719 23.285156 11.417969 L 23.300781 11.359375 C 23.421875 11.402344 23.488281 11.453125 23.488281 11.511719 C 23.488281 11.664062 23.019531 11.785156 22.4375 11.78125 C 21.867188 11.78125 21.398438 11.664062 21.398438 11.511719 C 21.398438 11.449219 21.492188 11.390625 21.628906 11.34375 Z M 28.640625 11.773438 C 26.328125 13.007812 13.6875 13.015625 11.363281 11.792969 L 12.394531 20.832031 C 12.839844 19.390625 13.96875 17.445312 15.421875 16.855469 C 15.894531 16.660156 16.378906 16.660156 16.832031 16.921875 C 17.226562 17.136719 17.558594 17.589844 17.597656 17.769531 C 17.6875 18.238281 17.445312 18.425781 17.257812 18.425781 C 17.03125 18.425781 16.855469 18.09375 16.742188 17.902344 C 16.433594 17.375 15.964844 17.351562 15.464844 17.699219 C 14.941406 18.058594 14.488281 18.664062 14.171875 19.1875 C 13.785156 19.824219 13.457031 20.523438 13.261719 21.21875 C 13.148438 21.625 13.042969 22.269531 13.21875 22.652344 C 13.292969 22.8125 13.40625 22.914062 13.589844 22.914062 C 13.96875 22.914062 14.519531 22.4375 14.78125 22.183594 C 15.121094 21.859375 15.5625 21.355469 15.726562 21.03125 L 16.125 19.917969 C 16.320312 19.425781 16.871094 19.511719 16.871094 19.917969 C 16.871094 20.652344 16.59375 20.898438 16.117188 22.417969 C 15.675781 23.820312 15.539062 24.277344 15.539062 24.277344 C 15.488281 24.480469 15.28125 24.816406 15.0625 24.816406 C 14.972656 24.816406 14.90625 24.785156 14.867188 24.730469 C 14.792969 24.628906 14.800781 24.351562 14.808594 24.277344 C 14.820312 24.046875 15.28125 22.675781 15.359375 22.460938 C 15.207031 22.621094 15.050781 22.78125 14.875 22.9375 C 14.464844 23.304688 13.808594 23.785156 13.25 23.785156 C 12.992188 23.785156 12.828125 23.722656 12.667969 23.613281 L 13.242188 29.347656 C 13.394531 29.707031 16.207031 30.582031 19.914062 30.582031 C 23.628906 30.582031 26.441406 29.703125 26.585938 29.347656 L 27.410156 22.535156 C 26.976562 22.910156 26.480469 23.371094 25.929688 23.601562 C 25.519531 23.765625 24.613281 23.875 24.613281 23.1875 C 24.613281 22.8125 25.300781 22.125 25.699219 21.640625 C 25.808594 21.519531 26.054688 21.214844 26.054688 21.058594 C 26.054688 20.847656 25.601562 20.898438 25.171875 21.234375 C 24.929688 21.429688 24.699219 21.691406 24.511719 21.9375 C 24.1875 22.367188 24.011719 22.742188 23.871094 23.050781 C 23.402344 24.074219 23.558594 23.671875 23.179688 24.636719 C 22.800781 25.59375 22.863281 25.484375 22.789062 25.644531 C 22.71875 25.78125 22.621094 25.898438 22.484375 25.96875 C 22.339844 26.042969 22.144531 26.035156 22.023438 25.945312 C 21.957031 25.902344 21.925781 25.808594 21.925781 25.679688 C 21.925781 25.617188 21.933594 25.550781 21.949219 25.484375 C 22.0625 25.046875 22.539062 24.183594 23.082031 23.015625 C 23.203125 22.75 23.160156 22.828125 23.140625 22.847656 C 22.671875 23.28125 22.316406 23.492188 22.054688 23.605469 C 21.613281 23.792969 21.070312 23.792969 20.957031 23.3125 C 20.949219 23.28125 20.949219 23.25 20.941406 23.222656 C 20.050781 23.886719 19.105469 24.066406 19.429688 22.640625 C 19.082031 23.230469 18.476562 23.714844 17.734375 23.714844 C 17.425781 23.714844 17.199219 23.613281 17.085938 23.347656 C 16.910156 22.949219 17.183594 22.273438 17.433594 21.632812 C 17.558594 21.308594 17.734375 20.917969 17.972656 20.464844 C 18.09375 20.21875 18.289062 20.074219 18.546875 20.140625 C 18.589844 20.152344 18.628906 20.167969 18.667969 20.191406 C 18.863281 20.320312 18.789062 20.511719 18.6875 20.707031 C 18.402344 21.246094 18.152344 21.644531 17.984375 22.207031 C 17.917969 22.445312 17.832031 22.855469 18.097656 22.855469 C 18.28125 22.855469 18.453125 22.796875 18.621094 22.683594 C 18.96875 22.4375 19.246094 22.070312 19.460938 21.710938 C 19.613281 21.453125 19.792969 21.113281 19.886719 20.824219 C 19.921875 20.703125 19.96875 20.585938 20.023438 20.480469 C 20.105469 20.296875 20.21875 20.113281 20.414062 20.113281 C 20.515625 20.113281 20.59375 20.148438 20.65625 20.21875 C 20.785156 20.378906 20.757812 20.542969 20.6875 20.714844 C 20.539062 21.117188 20.332031 21.480469 20.167969 21.917969 C 20.066406 22.171875 19.960938 22.496094 19.960938 22.761719 C 19.960938 23.007812 20.242188 22.949219 20.476562 22.847656 C 20.65625 22.769531 20.839844 22.648438 20.992188 22.523438 C 21.082031 22.171875 21.058594 22.25 22.988281 17.609375 C 23.085938 17.371094 23.269531 17.269531 23.449219 17.269531 C 23.539062 17.269531 23.613281 17.300781 23.691406 17.351562 C 23.820312 17.445312 23.820312 17.644531 23.769531 17.796875 C 23.71875 17.933594 23.722656 17.890625 23.429688 18.550781 C 23.035156 19.421875 22.777344 20.050781 22.429688 20.851562 C 22.285156 21.183594 21.847656 22.214844 21.773438 22.457031 C 21.726562 22.617188 21.671875 22.875 21.847656 22.875 C 22.257812 22.875 23.308594 21.933594 23.597656 21.652344 C 23.609375 21.628906 23.632812 21.621094 23.664062 21.605469 C 23.710938 21.46875 23.753906 21.339844 23.792969 21.210938 C 23.898438 20.9375 23.996094 20.617188 24.195312 20.394531 C 24.253906 20.324219 24.320312 20.28125 24.398438 20.28125 C 24.609375 20.28125 24.714844 20.367188 24.714844 20.570312 C 24.714844 20.648438 24.664062 20.9375 24.632812 21.015625 C 24.738281 20.90625 24.847656 20.800781 24.972656 20.695312 C 26.105469 19.691406 26.914062 20.203125 26.914062 20.707031 C 26.914062 21.242188 26.242188 21.980469 25.871094 22.394531 C 25.75 22.53125 25.5 22.78125 25.492188 22.855469 C 25.492188 22.949219 25.558594 22.984375 25.660156 22.984375 C 25.808594 22.984375 26.144531 22.734375 26.265625 22.648438 C 26.644531 22.367188 27.15625 21.933594 27.519531 21.632812 Z M 13.660156 30.039062 L 14.789062 31.871094 L 15.230469 37.589844 C 15.230469 38.230469 17.371094 38.75 20.003906 38.75 C 22.636719 38.75 24.773438 38.230469 24.773438 37.589844 L 25.125 31.8125 L 26.1875 30.039062 C 23.191406 31.242188 16.78125 31.285156 13.660156 30.039062 Z M 13.660156 30.039062 "/>
</g>
</svg>
